<svg width="24" height="24" viewBox="0 0 24 24" fill="none" xmlns="http://www.w3.org/2000/svg">
<path d="M5.5007 9.00035H8.9707M5.5007 13.0003H8.9707M12.5007 22.0003H4.0807C2.9207 22.0003 1.9707 21.0703 1.9707 19.9303V5.09035C1.9707 2.47035 3.9207 1.28035 6.3107 2.45035L10.7507 4.63035C11.7107 5.10035 12.5007 6.35035 12.5007 7.41035V22.0003ZM21.9707 15.0603V18.8403C21.9707 21.0003 20.9707 22.0003 18.8107 22.0003H12.5007V10.4203L12.9707 10.5203L17.4707 11.5303L19.5007 11.9803C20.8207 12.2703 21.9007 12.9503 21.9607 14.8703C21.9707 14.9303 21.9707 14.9903 21.9707 15.0603V15.0603Z" stroke="#111111" stroke-width="2" stroke-linecap="round" stroke-linejoin="round"/>
<path d="M17.4707 11.5295V14.7495C17.4707 15.9895 16.4607 16.9995 15.2207 16.9995C13.9807 16.9995 12.9707 15.9895 12.9707 14.7495V10.5195L17.4707 11.5295ZM21.9607 14.8695C21.9303 15.4436 21.6812 15.9842 21.2646 16.3803C20.848 16.7765 20.2956 16.998 19.7207 16.9995C18.4807 16.9995 17.4707 15.9895 17.4707 14.7495V11.5295L19.5007 11.9795C20.8207 12.2695 21.9007 12.9495 21.9607 14.8695Z" stroke="#111111" stroke-width="2" stroke-linecap="round" stroke-linejoin="round"/>
</svg>
